<svg width="58" height="58" viewBox="0 0 58 58" fill="none" xmlns="http://www.w3.org/2000/svg">
<g clip-path="url(#clip0)">
<path d="M8.00003 32.2498C8.00003 18.3102 18.9118 8 32.9982 8C47.0847 8 57.9965 18.3102 57.9965 32.2498C57.9965 46.1817 47.0847 56.4997 32.9982 56.4997C30.475 56.4997 28.0423 56.1653 25.7722 55.5388C25.3286 55.4181 24.8568 55.4556 24.4379 55.645L19.457 57.8339C19.1565 57.9675 18.8277 58.0249 18.4997 58.0013C18.1717 57.9776 17.8545 57.8736 17.5763 57.6983C17.298 57.523 17.0672 57.282 16.9042 56.9963C16.7412 56.7107 16.651 56.3894 16.6416 56.0606L16.4947 51.6016C16.4853 51.3335 16.4221 51.07 16.3088 50.8269C16.1956 50.5837 16.0346 50.3658 15.8354 50.1861C13.3291 47.9257 11.3337 45.1568 9.98232 42.0641C8.63091 38.9714 7.95459 35.6261 7.99847 32.2514L8.00003 32.2498ZM25.3332 27.6845L18.0009 39.354C17.2681 40.4524 18.668 41.7304 19.7101 40.9164L27.6033 34.9356C27.8625 34.7335 28.1817 34.6238 28.5103 34.6238C28.8389 34.6238 29.1581 34.7335 29.4172 34.9356L35.2434 39.3134C35.6587 39.6215 36.1329 39.8408 36.6367 39.9576C37.1404 40.0744 37.6628 40.0862 38.1713 39.9922C38.6798 39.8983 39.1635 39.7006 39.5923 39.4115C40.021 39.1224 40.3856 38.7481 40.6633 38.3119L47.9956 26.6424C48.7284 25.5441 47.3285 24.291 46.2864 25.08L38.3932 31.0609C38.1384 31.2626 37.8229 31.3724 37.4979 31.3724C37.1729 31.3724 36.8575 31.2626 36.6027 31.0609L30.7687 26.683C30.354 26.3696 29.8786 26.1458 29.3728 26.026C28.8669 25.9062 28.3417 25.893 27.8305 25.9871C27.3192 26.0813 26.8332 26.2809 26.4032 26.5731C25.9733 26.8653 25.6089 27.2438 25.3332 27.6845Z" fill="#8A02C7"/>
</g>
<g clip-path="url(#clip1)">
<path d="M2.86037e-05 24.2498C2.86037e-05 10.3102 10.9118 0 24.9982 0C39.0847 0 49.9965 10.3102 49.9965 24.2498C49.9965 38.1817 39.0847 48.4997 24.9982 48.4997C22.475 48.4997 20.0423 48.1653 17.7722 47.5388C17.3286 47.4181 16.8568 47.4556 16.4379 47.645L11.457 49.8339C11.1565 49.9675 10.8277 50.0249 10.4997 50.0013C10.1717 49.9776 9.85454 49.8736 9.57628 49.6983C9.29801 49.523 9.06718 49.282 8.90417 48.9963C8.74116 48.7107 8.65098 48.3894 8.6416 48.0606L8.49473 43.6016C8.48531 43.3335 8.42208 43.07 8.30882 42.8269C8.19555 42.5837 8.03456 42.3658 7.83541 42.1861C5.32913 39.9257 3.33372 37.1568 1.98232 34.0641C0.630913 30.9714 -0.0454123 27.6261 -0.00153378 24.2514L2.86037e-05 24.2498ZM17.3332 19.6845L10.0009 31.354C9.26812 32.4524 10.668 33.7304 11.7101 32.9164L19.6033 26.9356C19.8625 26.7335 20.1817 26.6238 20.5103 26.6238C20.8389 26.6238 21.1581 26.7335 21.4172 26.9356L27.2434 31.3134C27.6587 31.6215 28.1329 31.8408 28.6367 31.9576C29.1404 32.0744 29.6628 32.0862 30.1713 31.9922C30.6798 31.8983 31.1635 31.7006 31.5923 31.4115C32.021 31.1224 32.3856 30.7481 32.6633 30.3119L39.9956 18.6424C40.7284 17.5441 39.3285 16.291 38.2864 17.08L30.3932 23.0609C30.1384 23.2626 29.8229 23.3724 29.4979 23.3724C29.1729 23.3724 28.8575 23.2626 28.6027 23.0609L22.7687 18.683C22.354 18.3696 21.8786 18.1458 21.3728 18.026C20.8669 17.9062 20.3417 17.893 19.8305 17.9871C19.3192 18.0813 18.8332 18.2809 18.4032 18.5731C17.9733 18.8653 17.6089 19.2438 17.3332 19.6845Z" fill="#20DDF5"/>
</g>
<defs>
<clipPath id="clip0">
<rect width="50" height="50" fill="white" transform="translate(8 8)"/>
</clipPath>
<clipPath id="clip1">
<rect width="50" height="50" fill="white"/>
</clipPath>
</defs>
</svg>
