<svg width="58" height="59" viewBox="0 0 58 59" fill="none" xmlns="http://www.w3.org/2000/svg">
<g clip-path="url(#clip0)">
<path d="M33 9.56543C19.6203 9.56543 8.78125 20.4061 8.78125 33.7842C8.78125 47.1623 19.6219 58.0029 33 58.0029C46.3797 58.0029 57.2188 47.1623 57.2188 33.7842C57.2188 20.4061 46.3781 9.56543 33 9.56543ZM44.8953 26.1576L40.9203 44.8889C40.6266 46.217 39.8359 46.5389 38.7328 45.9139L32.6781 41.4514L29.7578 44.2639C29.4359 44.5857 29.1625 44.8592 28.5375 44.8592L28.9672 38.6967L40.1875 28.5592C40.6766 28.1295 40.0797 27.8857 39.4344 28.3154L25.5672 37.0451L19.5906 35.1795C18.2922 34.7701 18.2625 33.8811 19.8641 33.2561L43.2141 24.2514C44.2984 23.8607 45.2453 24.5154 44.8937 26.1561L44.8953 26.1576Z" fill="#FB7D08"/>
</g>
<g clip-path="url(#clip1)">
<path d="M25 1.56543C11.6203 1.56543 0.78125 12.4061 0.78125 25.7842C0.78125 39.1623 11.6219 50.0029 25 50.0029C38.3797 50.0029 49.2188 39.1623 49.2188 25.7842C49.2188 12.4061 38.3781 1.56543 25 1.56543ZM36.8953 18.1576L32.9203 36.8889C32.6266 38.217 31.8359 38.5389 30.7328 37.9139L24.6781 33.4514L21.7578 36.2639C21.4359 36.5857 21.1625 36.8592 20.5375 36.8592L20.9672 30.6967L32.1875 20.5592C32.6766 20.1295 32.0797 19.8857 31.4344 20.3154L17.5672 29.0451L11.5906 27.1795C10.2922 26.7701 10.2625 25.8811 11.8641 25.2561L35.2141 16.2514C36.2984 15.8607 37.2453 16.5154 36.8937 18.1561L36.8953 18.1576Z" fill="#5A20FF"/>
</g>
<defs>
<clipPath id="clip0">
<rect width="50" height="50" fill="white" transform="translate(8 8.78418)"/>
</clipPath>
<clipPath id="clip1">
<rect width="50" height="50" fill="white" transform="translate(0 0.78418)"/>
</clipPath>
</defs>
</svg>
