<svg width="58" height="59" viewBox="0 0 58 59" fill="none" xmlns="http://www.w3.org/2000/svg">
<circle cx="33" cy="33.7842" r="25" fill="#E20C59"/>
<g clip-path="url(#clip0)">
<circle cx="25" cy="25.7842" r="25" fill="white"/>
<rect x="8" y="12.7842" width="34" height="26" fill="#FF264F"/>
<path d="M41.6666 38.2843H37.5V20.0552L25 27.8677L12.5 20.0552V38.2843H8.33329V13.2843H10.8333L25 22.1385L39.1666 13.2843H41.6666V38.2843ZM41.6666 9.11768H8.33329C6.02079 9.11768 4.16663 10.9718 4.16663 13.2843V38.2843C4.16663 39.3894 4.60561 40.4492 5.38701 41.2306C6.16842 42.012 7.22822 42.451 8.33329 42.451H41.6666C42.7717 42.451 43.8315 42.012 44.6129 41.2306C45.3943 40.4492 45.8333 39.3894 45.8333 38.2843V13.2843C45.8333 12.1793 45.3943 11.1195 44.6129 10.3381C43.8315 9.55666 42.7717 9.11768 41.6666 9.11768Z" fill="white"/>
</g>
<defs>
<clipPath id="clip0">
<rect width="50" height="50" fill="white" transform="translate(0 0.78418)"/>
</clipPath>
</defs>
</svg>
