<svg width="25" height="25" viewBox="0 0 25 25" fill="none" xmlns="http://www.w3.org/2000/svg">
<circle cx="12.5" cy="12.5" r="12.5" fill="white"/>
<rect x="4" y="6" width="17" height="13" fill="#FF264F"/>
<path d="M20.8333 18.7501H18.7499V9.6355L12.4999 13.5417L6.24992 9.6355V18.7501H4.16659V6.25008H5.41659L12.4999 10.6772L19.5833 6.25008H20.8333V18.7501ZM20.8333 4.16675H4.16659C3.01034 4.16675 2.08325 5.09383 2.08325 6.25008V18.7501C2.08325 19.3026 2.30275 19.8325 2.69345 20.2232C3.08415 20.6139 3.61405 20.8334 4.16659 20.8334H20.8333C21.3858 20.8334 21.9157 20.6139 22.3064 20.2232C22.6971 19.8325 22.9166 19.3026 22.9166 18.7501V6.25008C22.9166 5.69755 22.6971 5.16764 22.3064 4.77694C21.9157 4.38624 21.3858 4.16675 20.8333 4.16675V4.16675Z" fill="white"/>
</svg>
