<svg width="25" height="25" viewBox="0 0 25 25" fill="none" xmlns="http://www.w3.org/2000/svg">
<g clip-path="url(#clip0)">
<path d="M0.000563618 12.1249C0.000563618 5.1551 5.45642 0 12.4997 0C19.5429 0 24.9988 5.1551 24.9988 12.1249C24.9988 19.0908 19.5429 24.2498 12.4997 24.2498C11.238 24.2498 10.0217 24.0827 8.88665 23.7694C8.66485 23.709 8.42896 23.7278 8.21951 23.8225L5.72906 24.917C5.57879 24.9837 5.4144 25.0125 5.25039 25.0007C5.08639 24.9888 4.92782 24.9368 4.78869 24.8492C4.64955 24.7615 4.53414 24.641 4.45263 24.4982C4.37113 24.3554 4.32604 24.1947 4.32135 24.0303L4.24792 21.8008C4.2432 21.6667 4.21159 21.535 4.15496 21.4134C4.09833 21.2919 4.01783 21.1829 3.91825 21.093C2.66511 19.9628 1.66741 18.5784 0.991708 17.0321C0.316006 15.4857 -0.0221568 13.8131 -0.000217576 12.1257L0.000563618 12.1249ZM8.66713 9.84227L5.00099 15.677C4.63461 16.2262 5.33456 16.8652 5.85561 16.4582L9.80221 13.4678C9.93178 13.3668 10.0914 13.3119 10.2557 13.3119C10.42 13.3119 10.5796 13.3668 10.7092 13.4678L13.6222 15.6567C13.8299 15.8108 14.067 15.9204 14.3189 15.9788C14.5708 16.0372 14.832 16.0431 15.0862 15.9961C15.3405 15.9491 15.5823 15.8503 15.7967 15.7058C16.011 15.5612 16.1933 15.374 16.3322 15.156L19.9984 9.32121C20.3647 8.77203 19.6648 8.14551 19.1437 8.54002L15.1971 11.5304C15.0697 11.6313 14.912 11.6862 14.7495 11.6862C14.587 11.6862 14.4293 11.6313 14.3019 11.5304L11.3849 9.34152C11.1776 9.18478 10.9399 9.0729 10.6869 9.01299C10.434 8.95309 10.1714 8.94648 9.91578 8.99358C9.66016 9.04067 9.41714 9.14045 9.20217 9.28656C8.9872 9.43267 8.80499 9.62192 8.66713 9.84227V9.84227Z" fill="#20DDF5"/>
</g>
<defs>
<clipPath id="clip0">
<rect width="25" height="25" fill="white"/>
</clipPath>
</defs>
</svg>
