<svg width="25" height="25" viewBox="0 0 25 25" fill="none" xmlns="http://www.w3.org/2000/svg">
<path d="M12.5 0.390625C5.81016 0.390625 0.390625 5.81094 0.390625 12.5C0.390625 19.1891 5.81094 24.6094 12.5 24.6094C19.1898 24.6094 24.6094 19.1891 24.6094 12.5C24.6094 5.81094 19.1891 0.390625 12.5 0.390625ZM18.4477 8.68672L16.4602 18.0523C16.3133 18.7164 15.918 18.8773 15.3664 18.5648L12.3391 16.3336L10.8789 17.7398C10.718 17.9008 10.5813 18.0375 10.2688 18.0375L10.4836 14.9563L16.0938 9.8875C16.3383 9.67266 16.0398 9.55078 15.7172 9.76563L8.78359 14.1305L5.79531 13.1977C5.14609 12.993 5.13125 12.5484 5.93203 12.2359L17.607 7.73359C18.1492 7.53828 18.6227 7.86563 18.4469 8.68594L18.4477 8.68672Z" fill="#5A20FF"/>
</svg>
